<svg width="123" height="152" viewBox="0 0 123 152" fill="none" xmlns="http://www.w3.org/2000/svg">
<path d="M119.645 74.571V40.332C119.645 35.743 115.925 32.022 111.335 32.022C106.745 32.022 103.025 35.742 103.025 40.332V74.571H101.969V23.879C101.969 17.752 97.002 12.784 90.874 12.784C84.746 12.784 79.779 17.751 79.779 23.879V74.571H78.301V13.195C78.301 7.06698 73.334 2.09998 67.206 2.09998C61.079 2.09998 56.111 7.06698 56.111 13.195V74.571H54.634V20.468C54.634 14.34 49.667 9.37298 43.539 9.37298C37.411 9.37298 32.444 14.34 32.444 20.468V74.571V93.458L30.481 91.495C23.017 84.031 10.916 84.031 3.45196 91.495C0.142965 94.804 0.142965 100.168 3.45196 103.477L41.396 141.421C43.274 143.299 45.429 144.73 47.728 145.718C51.47 147.601 55.694 148.668 60.169 148.668H91.919C107.231 148.668 119.644 136.255 119.644 120.943V74.571H119.645Z" fill="#F0C6BF"/>
<path d="M3.45385 99.896C10.9179 92.432 23.0189 92.432 30.4829 99.896L47.4988 116.913C55.5428 113.335 65.4359 115.24 71.5049 122.641C73.5999 125.196 74.9559 128.17 75.6039 131.269C76.8319 125.401 75.4709 119.077 71.5049 114.24C65.4359 106.839 55.5438 104.933 47.4988 108.512L30.4829 91.495C23.0189 84.031 10.9179 84.031 3.45385 91.495C0.690854 94.258 0.243852 98.451 2.09585 101.686C2.46085 101.047 2.90785 100.442 3.45385 99.896Z" fill="#F2E1DE"/>
<path d="M43.5408 9.37299C37.4128 9.37299 32.4458 14.34 32.4458 20.468V28.869C32.4458 22.741 37.4128 17.774 43.5408 17.774C49.6678 17.774 54.6358 22.741 54.6358 28.869V20.468C54.6358 14.341 49.6678 9.37299 43.5408 9.37299Z" fill="#F2E1DE"/>
<path d="M111.336 32.022C106.747 32.022 103.026 35.742 103.026 40.332V48.733C103.026 44.144 106.746 40.423 111.336 40.423C115.925 40.423 119.646 44.143 119.646 48.733V40.332C119.645 35.742 115.925 32.022 111.336 32.022Z" fill="#F2E1DE"/>
<path d="M67.2078 2.09998C61.0798 2.09998 56.1128 7.06698 56.1128 13.195V21.596C56.1128 15.468 61.0798 10.501 67.2078 10.501C73.3348 10.501 78.3028 15.468 78.3028 21.596V13.195C78.3028 7.06698 73.3348 2.09998 67.2078 2.09998Z" fill="#F2E1DE"/>
<path d="M90.8748 12.784C84.7468 12.784 79.7798 17.751 79.7798 23.879V32.28C79.7798 26.152 84.7468 21.185 90.8748 21.185C97.0028 21.185 101.97 26.152 101.97 32.28V23.879C101.97 17.751 97.0028 12.784 90.8748 12.784Z" fill="#F2E1DE"/>
<path d="M123 40.332C123 34.592 118.33 29.922 112.59 29.922C109.767 29.922 107.202 31.052 105.325 32.883V23.879C105.325 16.603 99.405 10.684 92.13 10.684C87.869 10.684 84.072 12.715 81.658 15.86V13.195C81.658 5.919 75.739 0 68.463 0C61.429 0 55.662 5.532 55.287 12.475C52.874 9.316 49.069 7.274 44.795 7.274C37.519 7.274 31.6 13.193 31.6 20.469V88.546C23.277 81.773 10.973 82.26 3.22298 90.01C1.22598 92.007 0.125977 94.662 0.125977 97.486C0.125977 100.31 1.22598 102.965 3.22298 104.962L41.167 142.906C41.311 143.05 41.475 143.16 41.645 143.254C43.017 144.471 44.494 145.567 46.062 146.511L49.7549 149.5C52 151 53 151.5 55 152L99 151.5C100.16 151.5 104.34 149.277 105.434 148.5L108.539 146.51C117.491 141.124 123 131.442 123 120.943V40.332ZM106 144C105.434 144.5 106 144 104.34 145.293L99.7549 147.5L57.7549 148.5L55.5 148L54 147.5L50.5 145.5C49.737 144.706 49.7549 144.652 49 144C47.1081 142.366 45.648 141.241 44.115 139.835C44.018 139.746 43.913 139.671 43.806 139.604L6.19398 101.992C4.98998 100.788 4.32797 99.188 4.32797 97.486C4.32797 95.784 4.99098 94.184 6.19398 92.98C12.828 86.347 23.619 86.347 30.253 92.98L32.212 94.939L32.22 94.947L47.269 109.997C47.883 110.612 48.814 110.784 49.608 110.431C57.079 107.109 65.931 109.223 71.136 115.572C71.136 115.572 72 116 73.5 118.5C74.383 120.5 74.095 120.275 75 121C76.5 121.5 77 120 77 119C75 113 75 114.5 74.383 112.909C68.294 105.482 58.143 102.77 49.254 106.043L35.8 92.589V20.469C35.8 15.509 39.835 11.474 44.795 11.474C49.755 11.474 53.789 15.509 53.789 20.469V74.572C53.789 75.732 54.729 76.672 55.889 76.672H57.366C58.526 76.672 59.466 75.732 59.466 74.572V13.195C59.466 8.235 63.501 4.2 68.461 4.2C73.421 4.2 77.455 8.235 77.455 13.195V74.571C77.455 75.731 78.395 76.671 79.555 76.671H81.033C82.193 76.671 83.133 75.731 83.133 74.571V23.879C83.133 18.919 87.168 14.885 92.127 14.885C97.087 14.885 101.122 18.92 101.122 23.879V74.571C101.122 75.731 102.062 76.671 103.222 76.671H104.277C105.437 76.671 106.377 75.731 106.377 74.571V40.332C106.377 36.908 109.163 34.122 112.586 34.122C116.01 34.122 118.796 36.908 118.796 40.332L118.798 120.943C118.802 130.325 114.245 139.5 106 144Z" fill="#4B1F1F"/>
</svg>
