<svg width="205" height="221" viewBox="0 0 205 221" fill="none" xmlns="http://www.w3.org/2000/svg">
<path d="M192.2 91.293C190.108 80.1 185.113 67.581 175.87 57.024C179.483 43.529 185.865 13.519 173.83 5.27402C161.709 -3.02898 132.647 21.628 120.002 33.312C112.689 33.458 103.451 34.684 92.984 36.689C82.498 38.6 73.439 40.795 66.567 43.3C50.549 36.966 14.547 24.483 6.24898 36.597C-1.99302 48.628 14.782 74.292 23.043 85.58C18.233 98.766 18.097 112.247 20.19 123.443C22 133.124 24.961 142.578 29.087 151.814C35.618 166.429 48.443 176.885 63.583 180.479C63.018 182.48 62.721 184.542 62.721 186.648C62.721 205.619 86.662 220.998 116.195 220.998C145.728 220.998 169.669 205.619 169.669 186.648C169.669 179.154 165.93 172.221 159.589 166.575C160.608 166.18 161.625 165.779 162.641 165.368C180.94 157.96 193.153 140.679 194.153 120.96C194.664 110.859 194.01 100.974 192.2 91.293Z" fill="#B2B8C4"/>
<path d="M104.674 41.656C107.669 57.681 105.433 71.536 99.7029 72.607C93.9599 73.68 86.8709 61.569 83.8749 45.544C83.4649 43.348 83.1509 41.196 82.9399 39.115C89.6439 37.545 96.405 36.281 103.226 35.336C103.781 37.353 104.266 39.472 104.674 41.656Z" fill="#95A1B3"/>
<path d="M81.3578 40.566C84.3508 56.579 82.1288 70.443 76.3868 71.517C70.8648 72.549 64.0658 61.311 60.9028 46.155C64.2988 44.555 67.8688 43.202 71.5768 42.115C74.7568 41.19 77.9478 40.327 81.1548 39.55C81.2318 39.891 81.2928 40.222 81.3578 40.566Z" fill="#95A1B3"/>
<path d="M126.292 33.793C128.853 49.125 126.586 62.134 121.039 63.171C115.296 64.244 108.217 52.119 105.224 36.106C105.16 35.762 105.098 35.431 105.046 35.085C108.801 34.586 112.588 34.196 116.38 33.894C119.72 33.624 123.031 33.602 126.292 33.793Z" fill="#95A1B3"/>
<path d="M166.473 32.163C166.473 32.163 168.831 35.608 169.888 39.767C170.873 43.608 169.084 47.016 166.248 48.829C158.437 42.708 149.366 38.206 139.606 35.725C139.297 33.598 139.793 31.36 141.22 29.48C146.944 21.921 155.215 13.377 162.477 14.865C175.13 17.464 166.473 32.163 166.473 32.163Z" fill="white"/>
<path d="M22.811 59.016C22.811 59.016 21.856 63.081 22.373 67.34C22.842 71.278 25.741 73.809 29.04 74.475C34.113 65.945 40.945 58.471 49.15 52.632C48.669 50.537 47.398 48.629 45.389 47.392C37.321 42.411 26.523 37.432 20.287 41.442C9.42997 48.436 22.811 59.016 22.811 59.016Z" fill="white"/>
<path d="M195.405 90.694C193.84 82.318 189.797 68.592 179.455 56.184C181.322 48.94 183.459 38.901 183.966 29.348C184.682 15.851 181.89 6.84501 175.667 2.58201C169.143 -1.88699 159.23 0.226003 145.361 9.042C135.437 15.35 125.534 23.814 118.688 30.092C111.696 30.339 102.897 31.47 92.3979 33.481C81.8589 35.402 73.2379 37.527 66.6249 39.824C42.4039 30.355 12.2669 22.031 3.55193 34.752C-0.712071 40.976 -0.0620718 50.382 5.48293 62.708C9.41493 71.448 15.0339 80.029 19.3909 86.1C14.2289 101.407 15.4169 115.667 16.9829 124.043C18.8339 133.944 21.9039 143.735 26.1079 153.146C30.3179 162.565 37.0639 170.536 45.6169 176.196C54.1859 181.867 64.1609 184.947 74.4619 185.102C74.4789 185.102 74.4959 185.102 74.5119 185.102C76.2899 185.102 77.7449 183.674 77.7719 181.89C77.7989 180.089 76.3619 178.607 74.5609 178.58C65.5089 178.443 56.7449 175.738 49.2169 170.756C41.6979 165.78 35.7659 158.77 32.0629 150.484C28.0669 141.541 25.1509 132.241 23.3939 122.844C21.4539 112.463 20.1229 92.209 33.0089 73.193C34.0189 71.702 33.6299 69.674 32.1379 68.664C30.6469 67.653 28.6189 68.043 27.6089 69.534C25.5089 72.632 23.7599 75.758 22.2959 78.872C11.8689 63.564 3.66393 46.127 8.93193 38.437C13.3189 32.032 31.8199 34.033 57.9469 43.523C54.1609 45.481 50.5759 47.63 47.2769 49.923C45.7979 50.951 45.4329 52.983 46.4609 54.462C47.0939 55.373 48.1099 55.862 49.1419 55.862C49.7839 55.862 50.4329 55.673 50.9999 55.278C54.4479 52.88 58.2399 50.648 62.2659 48.643C68.6749 45.457 79.2059 42.514 93.5959 39.891C107.933 37.145 118.816 36.085 125.941 36.741C130.423 37.157 134.765 37.869 138.846 38.859C140.597 39.284 142.359 38.209 142.784 36.459C143.208 34.709 142.133 32.946 140.383 32.521C136.478 31.574 132.359 30.865 128.117 30.407C134.156 25.14 141.527 19.207 148.86 14.545C159.808 7.58502 168.018 5.24701 171.981 7.96101C178.639 12.522 179.379 28.241 174.14 50.497C171.649 48.12 168.886 45.836 165.807 43.703C164.325 42.677 162.295 43.047 161.27 44.527C160.245 46.008 160.614 48.039 162.095 49.065C180.98 62.143 187.055 81.51 188.995 91.891C190.752 101.289 191.391 111.014 190.895 120.796C190.435 129.861 187.436 138.54 182.222 145.896C177.002 153.261 169.807 158.949 161.415 162.346C159.746 163.022 158.94 164.923 159.616 166.593C160.13 167.862 161.351 168.631 162.64 168.631C163.047 168.631 163.462 168.554 163.862 168.392C173.411 164.526 181.6 158.051 187.542 149.668C193.473 141.3 196.884 131.431 197.407 121.127C197.93 110.833 197.256 100.594 195.405 90.694Z" fill="#70838E"/>
<path d="M155.851 123.73C154.312 123.73 152.942 122.635 152.649 121.067C152.318 119.296 153.485 117.593 155.255 117.262L170.5 114.413C172.271 114.084 173.974 115.249 174.305 117.02C174.636 118.79 173.469 120.494 171.699 120.825L156.454 123.674C156.252 123.711 156.05 123.73 155.851 123.73Z" fill="#95A1B3"/>
<path d="M171.008 135.719C170.825 135.719 170.64 135.704 170.453 135.672L157.117 133.384C155.342 133.079 154.15 131.393 154.455 129.618C154.759 127.843 156.441 126.649 158.221 126.955L171.557 129.243C173.332 129.548 174.524 131.234 174.219 133.009C173.946 134.597 172.567 135.719 171.008 135.719Z" fill="#95A1B3"/>
<path d="M49.3699 143.633C47.8309 143.633 46.4609 142.539 46.1679 140.97C45.8369 139.2 47.0039 137.496 48.7739 137.165L64.019 134.316C65.79 133.986 67.4929 135.152 67.8239 136.923C68.1549 138.694 66.9879 140.397 65.2179 140.728L49.9729 143.577C49.7709 143.615 49.5689 143.633 49.3699 143.633Z" fill="#95A1B3"/>
<path d="M54.8262 157.435C53.7172 157.435 52.6362 156.869 52.0252 155.849C51.1002 154.304 51.6022 152.301 53.1482 151.376L64.7572 144.425C66.3012 143.5 68.3052 144.002 69.2302 145.548C70.1552 147.093 69.6522 149.096 68.1072 150.021L56.4982 156.972C55.9732 157.286 55.3962 157.435 54.8262 157.435Z" fill="#95A1B3"/>
<path d="M126.836 97.462C125.946 97.462 125.059 97.1 124.415 96.388C123.207 95.052 123.312 92.99 124.647 91.782L131.726 85.379C133.062 84.171 135.125 84.274 136.333 85.61C137.541 86.946 137.436 89.008 136.101 90.216L129.022 96.619C128.399 97.184 127.616 97.462 126.836 97.462Z" fill="white"/>
<path d="M82.1897 105.808C81.8017 105.808 81.4077 105.738 81.0247 105.591L72.1097 102.178C70.4277 101.534 69.5867 99.649 70.2307 97.967C70.8747 96.285 72.7607 95.443 74.4417 96.088L83.3567 99.501C85.0387 100.145 85.8797 102.031 85.2357 103.712C84.7387 105.011 83.5017 105.808 82.1897 105.808Z" fill="white"/>
<path d="M137.151 134.409C137.657 137.791 137.109 140.489 135.728 142.703C132.494 147.916 124.612 150.35 115.01 152.271C105.256 154.231 96.774 155.782 91.817 151.895C89.845 150.342 88.423 147.932 87.706 144.338C87.285 142.21 87.484 139.851 88.244 137.49C88.595 136.372 89.083 135.252 89.675 134.135C92.997 127.922 99.851 122.192 108.624 120.426C112.01 119.759 115.399 119.72 118.59 120.21C123.649 120.968 128.214 122.997 131.568 125.709C134.625 128.179 136.673 131.239 137.151 134.409Z" fill="#70838E"/>
<path d="M130.834 143.618C128.502 148.662 122.409 150.762 114.944 152.283C107.361 153.838 100.76 155.037 96.71 150.98C96.877 150.4 97.081 149.824 97.302 149.246C99.664 143.224 104.816 137.801 111.637 136.4C114.27 135.874 116.933 135.982 119.457 136.585C123.462 137.541 127.129 139.737 129.872 142.564C130.204 142.912 130.528 143.263 130.834 143.618Z" fill="#E27FA3"/>
<path d="M140.375 133.92C139.788 130.042 137.39 126.226 133.622 123.174C129.704 120.002 124.539 117.803 119.083 116.984C116.497 116.593 113.897 116.522 111.313 116.758L110.611 113.13L111.666 112.933C113.437 112.602 114.604 110.899 114.272 109.128C113.941 107.358 112.238 106.19 110.467 106.522L101.904 108.122C100.134 108.453 98.9661 110.156 99.2981 111.927C99.5911 113.495 100.96 114.59 102.5 114.59C102.699 114.59 102.9 114.572 103.103 114.534L104.199 114.329L104.914 118.022C97.1971 120.423 90.427 125.808 86.8 132.595C86.117 133.868 85.5571 135.182 85.1341 136.5C84.2021 139.414 83.9851 142.343 84.5091 144.975C85.9371 152.102 90.0341 156.243 96.6871 157.282C97.8951 157.471 99.1591 157.556 100.483 157.556C104.837 157.556 109.844 156.637 115.656 155.471C121.838 154.229 128.812 152.521 133.661 149.273C139.103 145.63 141.362 140.465 140.375 133.92ZM130.032 143.856C126.108 146.484 119.601 148.027 114.372 149.078C107.439 150.47 101.808 151.483 97.693 150.84C94.821 150.391 92.009 149.215 90.905 143.7C90.598 142.154 90.7501 140.352 91.3461 138.49C91.6481 137.549 92.052 136.603 92.551 135.674C95.065 130.969 100.775 125.333 109.252 123.629C110.898 123.304 112.562 123.141 114.232 123.141C115.524 123.141 116.82 123.239 118.111 123.434C122.439 124.083 126.491 125.791 129.518 128.243C132.018 130.268 133.584 132.631 133.926 134.895C134.536 138.939 133.372 141.619 130.032 143.856Z" fill="#70838E"/>
<path d="M61.0699 130.209C59.5799 130.209 58.2359 129.182 57.8929 127.669C57.4949 125.913 58.5949 124.166 60.3509 123.768C60.6909 123.691 66.3739 122.413 72.9799 121.661C70.6699 120.174 68.0279 118.768 65.5019 118.091C63.7619 117.625 62.7299 115.837 63.1959 114.097C63.6629 112.357 65.4529 111.325 67.1899 111.792C75.4109 113.995 83.7619 121.664 84.1129 121.99C85.1019 122.905 85.4259 124.333 84.9289 125.585C84.4359 126.828 83.2339 127.644 81.8979 127.644C81.8889 127.644 81.8799 127.644 81.8709 127.644C73.1589 127.579 61.9069 130.103 61.7939 130.129C61.5519 130.182 61.3089 130.209 61.0699 130.209Z" fill="#5F5C5D"/>
<path d="M134.997 117.718C134.106 117.718 133.234 117.353 132.604 116.673C131.689 115.685 131.475 114.236 132.066 113.026C132.276 112.596 137.293 102.428 144.162 97.404C145.615 96.341 147.657 96.658 148.719 98.111C149.782 99.565 149.465 101.605 148.012 102.668C145.901 104.212 143.945 106.477 142.328 108.698C148.759 107.013 154.52 106.152 154.865 106.101C156.643 105.84 158.304 107.069 158.566 108.851C158.829 110.633 157.598 112.29 155.817 112.553C155.702 112.57 144.277 114.282 136.199 117.488C135.808 117.642 135.401 117.718 134.997 117.718Z" fill="#5F5C5D"/>
<path d="M136.323 186.458C148.826 159.67 176.076 102.563 196.64 109.264C217.204 115.965 168.242 192.803 168.242 192.803L136.323 186.458Z" fill="#B2B8C4"/>
<path d="M168.239 196.064C167.64 196.064 167.033 195.899 166.49 195.553C164.971 194.585 164.524 192.569 165.492 191.05C180.285 167.83 202.168 126.567 197.909 114.69C197.458 113.434 196.777 112.738 195.63 112.364C188.441 110.021 178.261 118.57 166.19 137.083C154.845 154.482 144.331 177.01 139.277 187.836C138.515 189.468 136.575 190.173 134.943 189.412C133.311 188.65 132.606 186.71 133.367 185.078C138.483 174.116 149.129 151.306 160.726 133.521C174.98 111.66 187.057 102.71 197.65 106.162C200.71 107.159 202.922 109.347 204.049 112.488C207.055 120.874 202.43 136.86 189.91 161.359C180.96 178.871 171.091 194.398 170.993 194.553C170.371 195.531 169.317 196.064 168.239 196.064Z" fill="#70838E"/>
<path d="M98.937 189.929C79.257 167.87 36.731 121.015 18.9639 133.348C1.19695 145.681 70.1919 205.187 70.1919 205.187L98.937 189.929Z" fill="#B2B8C4"/>
<path d="M70.191 208.448C69.436 208.448 68.679 208.188 68.062 207.656C67.923 207.536 54.005 195.503 40.396 181.306C21.357 161.444 12.329 147.463 12.796 138.567C12.971 135.234 14.461 132.503 17.105 130.668C26.255 124.316 40.3981 129.412 60.3381 146.249C76.5601 159.946 93.318 178.73 101.372 187.757C102.571 189.101 102.454 191.162 101.11 192.362C99.766 193.561 97.705 193.443 96.505 192.1C88.551 183.185 72.0001 164.633 56.1311 151.233C39.2441 136.974 27.037 131.716 20.825 136.027C19.834 136.715 19.381 137.578 19.311 138.91C18.65 151.515 51.476 184.738 72.324 202.717C73.688 203.893 73.84 205.953 72.664 207.316C72.017 208.065 71.106 208.448 70.191 208.448Z" fill="#70838E"/>
</svg>
