<svg width="202" height="221" viewBox="0 0 202 221" fill="none" xmlns="http://www.w3.org/2000/svg">
<path d="M193.343 6.90205C182.033 -4.40795 146.004 16.165 130.136 26.138C122.282 24.832 112.151 24.296 100.55 24.348C88.9469 24.296 78.8149 24.8321 70.9599 26.1391C55.0859 16.1581 19.0599 -4.39994 7.75694 6.90306C-3.46806 18.1281 9.34794 48.946 15.9299 62.677C8.14594 75.824 5.30394 90.2231 5.30394 102.622C5.30394 113.344 6.58094 124.052 9.14994 134.76C14.1639 155.66 30.6889 171.709 51.7519 175.975C52.2679 176.079 52.7829 176.177 53.2989 176.278C52.4779 178.936 52.0439 181.705 52.0439 184.55C52.0439 204.681 73.7599 221.001 100.549 221.001C127.338 221.001 149.054 204.681 149.054 184.55C149.054 181.705 148.62 178.936 147.799 176.278C148.315 176.177 148.832 176.079 149.348 175.975C170.411 171.708 186.935 155.659 191.95 134.76C194.518 124.052 195.796 113.343 195.796 102.622C195.796 90.2261 192.955 75.8311 185.176 62.6871C191.741 48.9671 204.572 18.1311 193.343 6.90205Z" fill="#B2B8C4"/>
<path d="M112.067 32.0001C112.067 49.7471 106.903 64.1241 100.557 64.1241C94.1972 64.1241 89.0342 49.7471 89.0342 32.0001C89.0342 29.5681 89.1292 27.2031 89.3192 24.9341C96.8072 24.5941 104.294 24.5941 111.782 24.9471C111.972 27.2171 112.067 29.5811 112.067 32.0001Z" fill="#95A1B3"/>
<path d="M87.3351 26.17C87.3351 43.904 82.1851 58.294 75.8251 58.294C69.7101 58.294 64.6821 44.909 64.3291 28.058C68.2831 27.025 72.3741 26.292 76.5591 25.87C80.1461 25.517 83.7341 25.231 87.3211 25.041C87.3351 25.423 87.3351 25.79 87.3351 26.17Z" fill="#95A1B3"/>
<path d="M136.772 27.91C136.446 44.828 131.418 58.295 125.275 58.295C118.915 58.295 113.765 43.904 113.765 26.171C113.765 25.79 113.765 25.424 113.779 25.043C117.897 25.26 122.028 25.6 126.145 26.035C129.774 26.415 133.32 27.053 136.772 27.91Z" fill="#95A1B3"/>
<path d="M180.094 34.202C180.094 34.202 181.929 38.36 182.227 43.021C182.512 47.328 179.917 50.617 176.52 51.99C169.386 43.877 160.58 37.246 150.633 32.639C150.728 30.302 151.707 28.005 153.609 26.279C161.246 19.335 171.805 11.847 179.279 14.892C192.297 20.206 180.094 34.202 180.094 34.202Z" fill="white"/>
<path d="M20.9968 34.202C20.9968 34.202 19.1618 38.36 18.8628 43.021C18.5778 47.328 21.1728 50.617 24.5698 51.99C31.7038 43.877 40.5098 37.246 50.4568 32.639C50.3618 30.302 49.3828 28.005 47.4808 26.279C39.8438 19.335 29.2848 11.847 21.8108 14.892C8.79382 20.206 20.9968 34.202 20.9968 34.202Z" fill="white"/>
<path d="M195.644 4.59204C189.647 -1.40496 178.719 -1.10498 162.235 5.50702C150.337 10.28 138.014 17.38 129.44 22.728C121.909 21.586 112.241 21.035 100.564 21.086C88.8629 21.04 79.1869 21.589 71.6539 22.73C63.0659 17.377 50.7299 10.272 38.8499 5.50702C22.3679 -1.10498 11.4419 -1.40496 5.44587 4.59204C-0.285128 10.323 -1.44513 20.426 1.99687 34.621C4.46487 44.797 8.79087 55.149 12.2439 62.513C3.62587 77.847 2.04287 93.351 2.04287 102.621C2.04287 113.562 3.36687 124.631 5.97887 135.52C8.58587 146.387 14.1829 156.217 22.1639 163.947C30.1599 171.691 40.1669 176.955 51.1049 179.171C51.3239 179.215 51.5419 179.237 51.7559 179.237C53.2749 179.237 54.6349 178.169 54.9489 176.623C55.3069 174.858 54.1659 173.137 52.3999 172.779C42.6869 170.811 33.8009 166.137 26.7019 159.262C19.6129 152.395 14.6399 143.659 12.3219 133.999C9.82987 123.608 8.56587 113.051 8.56587 102.621C8.56587 91.081 11.2039 69.057 28.8679 51.212C30.1349 49.932 30.1249 47.867 28.8449 46.6C27.5659 45.333 25.5009 45.343 24.2329 46.623C21.2469 49.639 18.6569 52.761 16.4069 55.931C6.11487 32.826 3.70787 15.554 10.0579 9.20303C16.1719 3.09003 35.9409 9.04602 62.4109 24.744C57.7499 26.118 53.2799 27.758 49.1149 29.632C47.4729 30.371 46.7399 32.301 47.4789 33.944C48.0229 35.152 49.2099 35.868 50.4549 35.868C50.9029 35.868 51.3569 35.775 51.7909 35.58C55.9729 33.699 60.4889 32.063 65.2129 30.719C72.7339 28.584 84.6349 27.535 100.565 27.609C116.491 27.533 128.368 28.584 135.887 30.719C140.614 32.065 145.13 33.7 149.311 35.581C150.953 36.319 152.884 35.588 153.623 33.945C154.362 32.303 153.629 30.372 151.987 29.633C147.82 27.758 143.347 26.117 138.68 24.742C165.142 9.03704 184.912 3.08204 191.033 9.20404C197.372 15.543 194.97 32.815 184.694 55.93C182.444 52.76 179.854 49.638 176.869 46.623C175.601 45.342 173.537 45.333 172.257 46.6C170.977 47.867 170.967 49.932 172.234 51.212C189.899 69.057 192.537 91.081 192.537 102.621C192.537 113.052 191.273 123.608 188.781 133.998C186.463 143.659 181.49 152.395 174.401 159.261C167.303 166.136 158.416 170.81 148.703 172.778C146.938 173.135 145.797 174.856 146.154 176.622C146.467 178.169 147.827 179.236 149.347 179.236C149.561 179.236 149.78 179.215 149.998 179.17C160.935 176.954 170.943 171.69 178.938 163.946C186.919 156.216 192.516 146.386 195.123 135.519C197.734 124.631 199.059 113.563 199.059 102.62C199.059 93.35 197.476 77.847 188.859 62.514C192.311 55.14 196.634 44.778 199.097 34.619C202.535 20.425 201.374 10.322 195.644 4.59204Z" fill="#70838E"/>
<path d="M140.916 121.767C146.817 121.767 151.601 116.983 151.601 111.082C151.601 105.181 146.817 100.397 140.916 100.397C135.015 100.397 130.231 105.181 130.231 111.082C130.231 116.983 135.015 121.767 140.916 121.767Z" fill="#5F5C5D"/>
<path d="M70.869 111.082C70.869 105.181 66.085 100.398 60.185 100.398C54.284 100.398 49.5 105.182 49.5 111.082C49.5 116.983 54.284 121.767 60.185 121.767C66.086 121.767 70.869 116.983 70.869 111.082Z" fill="#5F5C5D"/>
<path d="M167.952 129.802H151.07C149.284 129.802 147.837 128.355 147.837 126.569C147.837 124.783 149.284 123.336 151.07 123.336H167.952C169.738 123.336 171.185 124.783 171.185 126.569C171.185 128.355 169.738 129.802 167.952 129.802Z" fill="#95A1B3"/>
<path d="M164.882 145.663C164.509 145.663 164.13 145.598 163.759 145.461L149.946 140.345C148.272 139.725 147.417 137.865 148.037 136.191C148.657 134.517 150.516 133.662 152.192 134.282L166.005 139.398C167.679 140.018 168.534 141.878 167.913 143.552C167.431 144.856 166.196 145.663 164.882 145.663Z" fill="#95A1B3"/>
<path d="M50.031 129.802H33.149C31.363 129.802 29.916 128.355 29.916 126.569C29.916 124.783 31.363 123.336 33.149 123.336H50.032C51.818 123.336 53.265 124.783 53.265 126.569C53.265 128.355 51.817 129.802 50.031 129.802Z" fill="#95A1B3"/>
<path d="M36.2189 145.663C34.9049 145.663 33.6699 144.856 33.1869 143.552C32.5669 141.878 33.4219 140.018 35.0959 139.398L48.9089 134.282C50.5819 133.662 52.4419 134.516 53.0629 136.191C53.6829 137.865 52.8289 139.725 51.1539 140.345L37.3409 145.461C36.9709 145.598 36.5919 145.663 36.2189 145.663Z" fill="#95A1B3"/>
<path d="M134.132 90.456C133.969 90.456 133.803 90.444 133.636 90.418L124.781 89.059C123.016 88.788 121.805 87.138 122.076 85.373C122.347 83.609 123.993 82.398 125.761 82.668L134.617 84.027C136.382 84.298 137.593 85.948 137.322 87.713C137.076 89.312 135.7 90.456 134.132 90.456Z" fill="white"/>
<path d="M66.9687 90.456C65.3997 90.456 64.0227 89.312 63.7777 87.713C63.5067 85.948 64.7177 84.298 66.4827 84.027L75.3387 82.668C77.1077 82.397 78.7527 83.608 79.0247 85.373C79.2957 87.138 78.0847 88.788 76.3197 89.059L67.4637 90.418C67.2977 90.444 67.1317 90.456 66.9687 90.456Z" fill="white"/>
<path d="M117.707 116.85H83.3929C78.0249 116.85 73.6729 121.202 73.6729 126.57C73.6729 131.938 78.0249 136.29 83.3929 136.29H117.707C123.075 136.29 127.427 131.938 127.427 126.57C127.428 121.202 123.076 116.85 117.707 116.85Z" fill="white"/>
<path d="M117.707 113.589H103.811V109.38H105.291C107.092 109.38 108.552 107.92 108.552 106.119C108.552 104.318 107.092 102.858 105.291 102.858H95.8081C94.0071 102.858 92.5471 104.318 92.5471 106.119C92.5471 107.92 94.0071 109.38 95.8081 109.38H97.2891V113.589H83.3931C76.2351 113.589 70.4121 119.412 70.4121 126.57C70.4121 133.728 76.2361 139.551 83.3931 139.551H117.707C124.865 139.551 130.688 133.728 130.688 126.57C130.689 119.412 124.865 113.589 117.707 113.589ZM117.707 133.029H83.3931C79.8311 133.029 76.9341 130.132 76.9341 126.57C76.9341 123.009 79.8311 120.111 83.3931 120.111H117.707C121.269 120.111 124.166 123.009 124.166 126.57C124.167 130.132 121.269 133.029 117.707 133.029Z" fill="#70838E"/>
<path d="M82.2068 177.696C80.4928 175.982 78.6898 174.455 76.8398 173.111C76.8128 171.918 76.6428 170.71 76.3128 169.508L74.4618 162.77C72.2948 154.881 64.1438 150.243 56.2558 152.41L55.2848 152.677C52.5648 145.379 47.2188 141.263 41.9138 142.72C35.5748 144.461 35.2488 151.904 38.8708 165.959C38.4958 168.06 38.5548 170.271 39.1578 172.466L41.0088 179.204C41.3988 180.623 41.9848 181.936 42.7258 183.124C43.1798 190.422 47.1488 198.82 54.1148 205.787C65.8528 217.525 81.6568 220.753 89.4148 212.995C97.1728 205.239 93.9448 189.435 82.2068 177.696Z" fill="#B2B8C4"/>
<path d="M96.3198 196.188C94.8338 188.9 90.6418 181.514 84.5168 175.389C83.0548 173.927 81.5368 172.592 79.9898 171.396C79.8838 170.475 79.7078 169.556 79.4578 168.645L77.6078 161.907C76.3298 157.252 73.3148 153.373 69.1188 150.986C65.4638 148.906 61.2928 148.175 57.2008 148.867C53.5438 141.539 47.3058 137.852 41.0548 139.582C37.9658 140.429 34.1328 142.812 33.4128 149.359C32.9798 153.294 33.6598 158.62 35.5428 166.067C35.2128 168.428 35.3448 170.891 36.0148 173.331L37.8658 180.068C38.2628 181.514 38.8278 182.885 39.5438 184.159C40.3028 192.333 44.7328 201.004 51.8148 208.087C57.9348 214.213 65.3168 218.408 72.6018 219.898C74.5438 220.295 76.4228 220.491 78.2228 220.491C83.6278 220.491 88.3038 218.72 91.7198 215.304C96.2708 210.752 97.9048 203.963 96.3198 196.188ZM60.1978 155.138C62.1748 155.138 64.1278 155.65 65.8928 156.654C68.5738 158.18 70.5008 160.659 71.3178 163.634L73.1678 170.372C73.9848 173.347 73.5948 176.462 72.0688 179.144C70.5428 181.826 68.0638 183.753 65.0888 184.569L58.3508 186.42C55.3758 187.237 52.2608 186.847 49.5788 185.321C46.8968 183.795 44.9708 181.316 44.1538 178.341L42.3028 171.603C40.6158 165.461 44.2408 159.092 50.3818 157.405L57.1198 155.554C58.1378 155.276 59.1708 155.138 60.1978 155.138ZM42.7868 145.869C45.5258 145.111 48.5168 146.977 50.6878 150.558L48.6548 151.116C45.2828 152.042 42.3978 153.873 40.1848 156.271C38.8668 146.955 41.5048 146.221 42.7868 145.869ZM87.1068 210.693C84.1548 213.646 79.4658 214.645 73.9088 213.509C67.8618 212.272 61.6548 208.71 56.4278 203.478C52.9448 199.995 50.1828 196.008 48.3678 191.975C50.5688 192.894 52.9058 193.363 55.2648 193.363C56.8708 193.363 58.4888 193.147 60.0798 192.71L66.8178 190.86C71.4728 189.581 75.3518 186.567 77.7388 182.371C78.3078 181.371 78.7738 180.331 79.1388 179.265C79.3948 179.509 79.6518 179.749 79.9048 180.002C85.1358 185.233 88.6958 191.445 89.9298 197.493C91.0628 203.051 90.0608 207.739 87.1068 210.693Z" fill="#70838E"/>
<path d="M159.183 142.72C153.879 141.263 148.533 145.378 145.812 152.677L144.841 152.41C136.953 150.244 128.801 154.882 126.635 162.77L124.784 169.508C124.454 170.71 124.283 171.919 124.257 173.111C122.407 174.454 120.605 175.981 118.891 177.696C107.153 189.434 103.925 205.239 111.682 212.996C119.439 220.753 135.243 217.526 146.982 205.788C153.948 198.822 157.916 190.424 158.371 183.125C159.112 181.937 159.698 180.625 160.088 179.205L161.939 172.467C162.542 170.272 162.601 168.061 162.226 165.96C165.848 151.904 165.523 144.462 159.183 142.72Z" fill="#B2B8C4"/>
<path d="M167.685 149.358C166.964 142.811 163.131 140.428 160.051 139.583C153.793 137.849 147.554 141.537 143.897 148.866C139.805 148.174 135.635 148.905 131.979 150.985C127.783 153.373 124.768 157.251 123.49 161.906L121.639 168.644C121.389 169.555 121.213 170.474 121.107 171.395C119.561 172.591 118.043 173.926 116.58 175.388C110.455 181.513 106.264 188.9 104.777 196.188C103.192 203.963 104.825 210.752 109.378 215.304C112.794 218.72 117.469 220.491 122.875 220.491C124.674 220.491 126.554 220.295 128.496 219.898C135.782 218.408 143.164 214.213 149.282 208.089C156.37 201.001 160.801 192.322 161.556 184.144C162.264 182.886 162.834 181.523 163.233 180.069L165.083 173.331C165.753 170.89 165.885 168.427 165.555 166.067C167.438 158.619 168.118 153.293 167.685 149.358ZM158.319 145.872C159.594 146.222 162.231 146.955 160.912 156.272C158.699 153.873 155.814 152.043 152.442 151.116L150.41 150.558C152.583 146.978 155.578 145.113 158.319 145.872ZM127.929 170.372L129.78 163.634C130.597 160.659 132.524 158.18 135.205 156.654C137.886 155.128 141.001 154.738 143.977 155.555L150.715 157.406C156.857 159.093 160.481 165.462 158.794 171.604L156.944 178.342C155.258 184.484 148.887 188.109 142.746 186.421L136.008 184.57C133.033 183.753 130.554 181.826 129.028 179.145C127.502 176.462 127.112 173.347 127.929 170.372ZM144.669 203.478C139.444 208.71 133.236 212.272 127.189 213.508C121.631 214.645 116.943 213.645 113.991 210.692C107.624 204.325 110.923 190.27 121.193 179.999C121.446 179.746 121.703 179.506 121.959 179.262C122.325 180.328 122.79 181.368 123.359 182.368C125.747 186.564 129.625 189.579 134.28 190.857L141.018 192.707C142.614 193.145 144.219 193.355 145.8 193.355C148.213 193.355 150.566 192.865 152.736 191.96C150.921 195.999 148.156 199.991 144.669 203.478Z" fill="#70838E"/>
</svg>
