<svg width="200" height="221" viewBox="0 0 200 221" fill="none" xmlns="http://www.w3.org/2000/svg">
<path d="M142.634 170.739C143.202 170.628 143.77 170.52 144.338 170.405C163.672 166.488 178.84 151.757 183.443 132.573C185.8 122.744 186.973 112.914 186.973 103.073C186.973 91.694 184.365 78.481 177.224 66.415C183.251 53.823 195.029 25.518 184.721 15.211C174.34 4.82997 141.268 23.713 126.702 32.868C119.493 31.669 110.194 31.177 99.5437 31.225C88.8927 31.177 79.5927 31.67 72.3827 32.869C57.8117 23.707 24.7427 4.83697 14.3677 15.212C4.06367 25.516 15.8287 53.804 21.8697 66.407C14.7247 78.475 12.1157 91.692 12.1157 103.073C12.1157 112.915 13.2887 122.744 15.6457 132.573C20.2487 151.757 35.4167 166.489 54.7507 170.405C55.3187 170.52 55.8867 170.628 56.4547 170.739C44.9467 184.052 3.38867 178.95 3.38867 195.959C3.38867 211.563 37.7887 217.891 63.3057 204.009C70.8767 214.026 84.2707 220.689 99.5437 220.689C114.817 220.689 128.211 214.026 135.782 204.009C161.299 217.891 195.699 211.562 195.699 195.959C195.701 178.95 154.142 184.053 142.634 170.739Z" fill="#B2B8C4"/>
<path d="M110.117 38.249C110.117 54.539 105.377 61.576 99.5516 61.576C93.7136 61.576 88.9746 54.539 88.9746 38.249C88.9746 36.016 89.0616 33.846 89.2366 31.763C96.1096 31.451 102.983 31.451 109.856 31.775C110.029 33.859 110.117 36.029 110.117 38.249Z" fill="#95A1B3"/>
<path d="M87.4149 32.898C87.4149 49.176 82.6869 62.385 76.8499 62.385C71.2369 62.385 66.6219 50.099 66.2979 34.631C69.9279 33.683 73.6819 33.01 77.5239 32.623C80.8169 32.299 84.1099 32.037 87.4029 31.862C87.4149 32.212 87.4149 32.549 87.4149 32.898Z" fill="#95A1B3"/>
<path d="M132.794 34.495C132.495 50.025 127.879 62.386 122.241 62.386C116.403 62.386 111.676 49.177 111.676 32.899C111.676 32.55 111.676 32.213 111.688 31.864C115.467 32.063 119.26 32.375 123.039 32.774C126.37 33.123 129.625 33.709 132.794 34.495Z" fill="#95A1B3"/>
<path d="M172.56 40.271C172.56 40.271 174.244 44.088 174.518 48.366C174.78 52.32 172.398 55.338 169.279 56.598C162.73 49.151 154.647 43.064 145.517 38.836C145.604 36.69 146.502 34.583 148.249 32.998C155.259 26.624 164.951 19.751 171.812 22.545C183.761 27.423 172.56 40.271 172.56 40.271Z" fill="white"/>
<path d="M26.5218 40.271C26.5218 40.271 24.8378 44.088 24.5638 48.366C24.3018 52.32 26.6838 55.338 29.8028 56.598C36.3518 49.151 44.4348 43.064 53.5658 38.836C53.4788 36.69 52.5798 34.583 50.8338 32.998C43.8238 26.624 34.1318 19.751 27.2708 22.545C15.3208 27.423 26.5218 40.271 26.5218 40.271Z" fill="white"/>
<path d="M161.414 119.639H145.917C144.087 119.639 142.603 118.155 142.603 116.325C142.603 114.495 144.086 113.011 145.917 113.011H161.414C163.244 113.011 164.728 114.495 164.728 116.325C164.728 118.155 163.245 119.639 161.414 119.639Z" fill="#95A1B3"/>
<path d="M158.596 134.197C158.214 134.197 157.825 134.13 157.446 133.99L144.767 129.294C143.051 128.659 142.175 126.752 142.81 125.036C143.445 123.32 145.353 122.444 147.068 123.08L159.747 127.776C161.463 128.412 162.339 130.318 161.704 132.034C161.209 133.37 159.943 134.197 158.596 134.197Z" fill="#95A1B3"/>
<path d="M53.1728 119.639H37.6758C35.8458 119.639 34.3618 118.155 34.3618 116.325C34.3618 114.495 35.8448 113.011 37.6758 113.011H53.1728C55.0028 113.011 56.4868 114.495 56.4868 116.325C56.4868 118.155 55.0028 119.639 53.1728 119.639Z" fill="#95A1B3"/>
<path d="M40.4937 134.197C39.1467 134.197 37.8807 133.37 37.3857 132.033C36.7507 130.317 37.6257 128.41 39.3427 127.775L52.0217 123.079C53.7357 122.444 55.6437 123.319 56.2797 125.035C56.9147 126.751 56.0397 128.658 54.3227 129.293L41.6437 133.989C41.2657 134.13 40.8767 134.197 40.4937 134.197Z" fill="#95A1B3"/>
<path d="M130.366 83.522H122.236C120.406 83.522 118.922 82.038 118.922 80.208C118.922 78.378 120.405 76.894 122.236 76.894H130.366C132.196 76.894 133.68 78.378 133.68 80.208C133.68 82.038 132.197 83.522 130.366 83.522Z" fill="white"/>
<path d="M76.8537 83.522H68.7237C66.8937 83.522 65.4097 82.038 65.4097 80.208C65.4097 78.378 66.8927 76.894 68.7237 76.894H76.8537C78.6837 76.894 80.1677 78.378 80.1677 80.208C80.1677 82.038 78.6837 83.522 76.8537 83.522Z" fill="white"/>
<path d="M116.807 100.938C115.033 100.492 113.231 101.57 112.786 103.345C112.224 105.583 110.216 107.146 107.902 107.146C105.121 107.146 102.859 104.886 102.859 102.108V100.866H103.897C105.727 100.866 107.211 99.382 107.211 97.552C107.211 95.722 105.728 94.238 103.897 94.238H95.1925C93.3625 94.238 91.8786 95.722 91.8786 97.552C91.8786 99.382 93.3615 100.866 95.1925 100.866H96.2306V102.108C96.2306 104.886 93.9706 107.146 91.1926 107.146C88.8766 107.146 86.8656 105.583 86.3036 103.345C85.8576 101.57 84.0586 100.493 82.2826 100.938C80.5076 101.384 79.4296 103.184 79.8756 104.959C81.1786 110.149 85.8326 113.774 91.1926 113.774C94.4636 113.774 97.4246 112.421 99.5446 110.244C101.666 112.42 104.628 113.774 107.901 113.774C113.258 113.774 117.91 110.149 119.213 104.959C119.659 103.184 118.581 101.384 116.807 100.938Z" fill="#70838E"/>
<path d="M138.025 100.866C133.241 100.866 128.745 99.003 125.362 95.621C124.068 94.327 124.068 92.229 125.362 90.935C126.656 89.641 128.754 89.642 130.048 90.935C132.178 93.066 135.011 94.239 138.024 94.239C141.037 94.239 143.87 93.066 146.001 90.935C147.295 89.641 149.393 89.642 150.687 90.935C151.981 92.229 151.981 94.327 150.687 95.621C147.306 99.004 142.808 100.866 138.025 100.866Z" fill="#5F5C5D"/>
<path d="M61.0647 100.857C56.4787 100.857 51.8927 99.112 48.4017 95.621C47.1077 94.327 47.1077 92.229 48.4017 90.935C49.6957 89.641 51.7946 89.641 53.0876 90.935C57.4856 95.333 64.6427 95.332 69.0407 90.935C70.3347 89.641 72.4327 89.642 73.7267 90.935C75.0207 92.229 75.0207 94.327 73.7267 95.621C70.2367 99.112 65.6507 100.857 61.0647 100.857Z" fill="#5F5C5D"/>
<path d="M170.213 177.901C163.244 176.47 155.684 174.917 150.323 172.285C158.339 169.792 165.656 165.468 171.719 159.595C179.088 152.458 184.257 143.381 186.664 133.346C189.067 123.328 190.285 113.143 190.285 103.073C190.285 94.557 188.834 80.335 180.961 66.246C184.124 59.473 188.06 50.013 190.31 40.73C193.496 27.584 192.402 18.209 187.058 12.865C176.127 1.93403 148.047 15.645 125.987 29.407C119.071 28.369 110.225 27.867 99.5577 27.911C88.8727 27.868 80.0147 28.37 73.0927 29.409C51.0277 15.654 22.9397 1.94603 12.0207 12.865C6.67571 18.21 5.58271 27.585 8.77071 40.731C11.0267 50.03 14.9647 59.482 18.1287 66.245C10.2547 80.334 8.80371 94.558 8.80371 103.074C8.80371 113.144 10.0217 123.329 12.4247 133.347C14.8327 143.381 20.0007 152.458 27.3697 159.596C33.4337 165.469 40.7507 169.793 48.7677 172.286C43.4077 174.916 35.8457 176.469 28.8767 177.901C14.7167 180.81 0.074707 183.819 0.074707 195.961C0.074707 202.435 4.47071 207.896 12.4537 211.336C18.0137 213.733 24.9747 215.008 32.4577 215.008C47.4617 215.008 64.5787 209.879 76.7547 198.366C78.0867 197.112 78.1427 195.012 76.8887 193.685C75.6297 192.353 73.5307 192.293 72.2037 193.551C64.6477 200.693 54.1437 205.659 42.6177 207.538C32.5227 209.184 22.2257 208.331 15.0747 205.249C11.9497 203.9 6.7037 200.904 6.7037 195.96C6.7037 189.693 16.0097 187.309 30.2077 184.391C40.6757 182.239 51.4227 180.027 57.5857 174.33C61.1847 175.001 64.8027 175.59 68.3827 176.087C68.5367 176.108 68.6897 176.119 68.8417 176.119C70.4697 176.119 71.8897 174.918 72.1197 173.26C72.3717 171.447 71.1057 169.774 69.2927 169.523C64.6877 168.885 60.0167 168.089 55.4097 167.158C46.5537 165.364 38.4527 161.103 31.9807 154.834C25.5167 148.573 20.9827 140.608 18.8697 131.8C16.5877 122.288 15.4317 112.622 15.4317 103.073C15.4317 92.529 17.8407 72.407 33.9747 56.109C35.2617 54.808 35.2517 52.71 33.9507 51.423C32.6507 50.136 30.5527 50.146 29.2647 51.447C26.6547 54.084 24.3777 56.81 22.3797 59.577C19.7587 53.615 16.9447 46.312 15.2117 39.169C12.6417 28.575 13.1597 21.1 16.7077 17.552C20.0837 14.176 28.5557 14.969 40.5617 19.786C48.5647 22.997 56.8507 27.443 63.7357 31.492C59.6987 32.713 55.8247 34.154 52.2007 35.785L54.9197 41.829C58.7427 40.109 62.8737 38.613 67.1957 37.383C74.0707 35.432 84.9697 34.47 99.5607 34.54C114.148 34.477 125.021 35.431 131.894 37.382C136.219 38.613 140.349 40.109 144.172 41.829L146.891 35.785C143.264 34.153 139.388 32.712 135.347 31.49C142.222 27.444 150.502 23.001 158.516 19.787C170.525 14.97 178.998 14.176 182.375 17.553C188.053 23.231 185.904 38.748 176.714 59.581C174.715 56.813 172.438 54.087 169.828 51.449C168.54 50.148 166.442 50.138 165.142 51.425C163.842 52.712 163.831 54.81 165.118 56.111C181.252 72.409 183.661 92.531 183.661 103.075C183.661 112.624 182.504 122.29 180.223 131.802C178.11 140.611 173.576 148.576 167.112 154.837C160.64 161.105 152.538 165.366 143.684 167.16C139.113 168.084 134.481 168.875 129.915 169.51C128.102 169.762 126.837 171.436 127.089 173.249C127.32 174.907 128.739 176.107 130.367 176.107C130.519 176.107 130.673 176.096 130.828 176.075C134.367 175.583 137.944 174.999 141.505 174.335C147.67 180.03 158.418 182.243 168.885 184.395C183.083 187.313 192.389 189.697 192.389 195.964C192.389 200.908 187.143 203.904 184.018 205.253C176.867 208.335 166.57 209.193 156.475 207.542C144.949 205.663 134.445 200.697 126.889 193.555C125.557 192.296 123.462 192.357 122.204 193.689C120.95 195.017 121.006 197.116 122.338 198.37C134.519 209.883 151.631 215.012 166.635 215.012C174.118 215.012 181.079 213.736 186.639 211.34C194.622 207.9 199.018 202.439 199.018 195.965C199.015 183.819 184.373 180.81 170.213 177.901Z" fill="#70838E"/>
<path d="M157.594 32.445C157.594 49.052 132.638 61.576 99.5437 61.576C66.4497 61.576 41.4937 49.052 41.4937 32.445C41.4937 15.838 66.4497 3.31403 99.5437 3.31403C132.638 3.31403 157.594 15.838 157.594 32.445ZM135.695 32.445C135.695 28.354 121.97 20.842 99.5437 20.842C77.1177 20.842 63.3926 28.354 63.3926 32.445C63.3926 36.536 77.1177 44.048 99.5437 44.048C121.97 44.048 135.695 36.536 135.695 32.445Z" fill="#FFFFA1"/>
<path d="M142.466 8.69C131.3 3.086 116.056 0 99.5447 0C83.0337 0 67.7897 3.086 56.6227 8.69C44.7297 14.658 38.1797 23.094 38.1797 32.445C38.1797 41.796 44.7297 50.232 56.6217 56.2C67.7887 61.804 83.0317 64.89 99.5437 64.89C116.056 64.89 131.299 61.804 142.465 56.2C154.358 50.232 160.907 41.796 160.907 32.445C160.908 23.094 154.358 14.658 142.466 8.69ZM99.5437 58.263C68.8497 58.263 44.8067 46.922 44.8067 32.445C44.8067 17.968 68.8497 6.627 99.5437 6.627C130.237 6.627 154.28 17.967 154.28 32.445C154.281 46.922 130.238 58.263 99.5437 58.263Z" fill="#F9CB71"/>
<path d="M141.978 25.2C140.343 24.379 138.351 25.037 137.529 26.673C137.334 27.06 137.117 27.431 136.877 27.794C131.444 21.965 116.316 17.529 99.5438 17.529C82.7718 17.529 67.6438 21.965 62.2108 27.794C61.9708 27.431 61.7538 27.06 61.5588 26.673C60.7368 25.038 58.7448 24.379 57.1098 25.2C55.4748 26.022 54.8148 28.014 55.6368 29.649C57.4798 33.315 60.3378 35.781 63.6098 38.4C63.6178 38.406 63.6268 38.41 63.6338 38.416C69.9818 43.581 84.0618 47.361 99.5428 47.361C115.024 47.361 129.103 43.581 135.452 38.416C135.46 38.41 135.468 38.406 135.476 38.4C138.748 35.781 141.606 33.315 143.449 29.649C144.272 28.014 143.613 26.022 141.978 25.2ZM99.5438 40.734C88.2218 40.734 80.2618 38.797 75.5788 37.173C71.3888 35.72 68.9968 34.241 67.7578 33.232C67.7558 33.23 67.7538 33.228 67.7518 33.226C67.7468 33.222 67.7428 33.219 67.7378 33.215C67.3658 32.911 67.0958 32.648 66.9178 32.445C67.6838 31.569 70.0938 29.62 75.5788 27.717C80.2628 26.092 88.2218 24.156 99.5438 24.156C110.866 24.156 118.825 26.093 123.508 27.717C128.993 29.62 131.403 31.569 132.169 32.445C131.992 32.648 131.721 32.91 131.35 33.214C131.345 33.218 131.34 33.222 131.335 33.226C131.333 33.228 131.331 33.23 131.328 33.232C130.089 34.241 127.698 35.719 123.508 37.173C118.826 38.797 110.867 40.734 99.5438 40.734Z" fill="#F9CB71"/>
</svg>
