<svg width="196" height="221" viewBox="0 0 196 221" fill="none" xmlns="http://www.w3.org/2000/svg">
<path d="M191.762 95.707C190.744 84.023 186.885 70.687 178.472 58.936C183.534 45.467 193.097 15.348 181.59 5.68498C170.001 -4.04602 137.73 18.303 123.592 29.006C116.082 28.42 106.489 28.746 95.558 29.748C84.617 30.652 75.111 31.989 67.814 33.865C52.032 25.76 16.386 9.34099 6.66002 20.923C-2.99898 32.425 11.612 60.421 18.944 72.823C12.686 85.855 11.19 99.66 12.208 111.347C13.088 121.453 15.172 131.442 18.471 141.324C24.914 160.612 41.807 174.383 62.011 176.675C62.787 176.763 63.562 176.844 64.338 176.924C60.39 183.904 55.81 194.671 55.81 207.068C55.81 207.068 75.86 220.689 108.601 220.689C141.342 220.689 160.577 207.068 160.577 207.068C160.577 189.567 151.448 175.31 147.859 170.381C149.91 169.836 151.959 169.264 154.005 168.662C173.508 162.911 187.766 146.427 190.777 126.315C192.317 116.011 192.642 105.813 191.762 95.707Z" fill="#B2B8C4"/>
<path d="M107.042 36.016C108.499 52.744 104.812 66.72 98.831 67.241C92.836 67.763 86.789 54.635 85.332 37.907C85.132 35.614 85.028 33.378 85.021 31.223C92.051 30.288 99.108 29.673 106.195 29.391C106.559 31.515 106.843 33.736 107.042 36.016Z" fill="#95A1B3"/>
<path d="M83.2512 32.552C84.7072 49.267 81.0342 63.255 75.0392 63.777C69.2752 64.279 63.4372 52.075 61.7202 36.221C65.3622 34.923 69.1582 33.896 73.0682 33.155C76.4202 32.527 79.7782 31.964 83.1442 31.49C83.1902 31.847 83.2202 32.193 83.2512 32.552Z" fill="#95A1B3"/>
<path d="M129.992 30.132C131.073 46.106 127.44 59.212 121.65 59.716C115.655 60.238 109.619 47.097 108.163 30.381C108.132 30.022 108.102 29.676 108.083 29.317C111.982 29.184 115.904 29.165 119.821 29.237C123.273 29.298 126.668 29.609 129.992 30.132Z" fill="#95A1B3"/>
<path d="M171.343 32.507C171.343 32.507 173.414 36.276 174.078 40.645C174.701 44.682 172.524 47.994 169.435 49.567C162.044 42.506 153.2 36.979 143.445 33.453C143.343 31.242 144.076 28.997 145.728 27.214C152.356 20.042 161.694 12.117 168.989 14.373C181.696 18.312 171.343 32.507 171.343 32.507Z" fill="white"/>
<path d="M21.382 45.57C21.382 45.57 19.994 49.64 20.095 54.058C20.18 58.142 22.896 61.028 26.211 62.043C32.27 53.81 40.025 46.837 49.023 41.678C48.741 39.483 47.63 37.398 45.696 35.928C37.927 30.01 27.36 23.819 20.565 27.302C8.73002 33.379 21.382 45.57 21.382 45.57Z" fill="white"/>
<path d="M195.01 95.424C194.248 86.683 191.485 72.205 182.123 58.45C184.768 51.214 187.977 41.121 189.46 31.367C191.547 17.64 189.603 8.15799 183.682 3.18599C177.478 -2.02401 167.138 -0.852012 152.074 6.76899C141.259 12.24 130.247 19.928 122.6 25.674C115.407 25.22 106.268 25.493 95.2891 26.499C84.2801 27.409 75.2171 28.72 68.2081 30.411C44.3611 18.277 14.3341 6.70499 4.15808 18.824C-0.815923 24.747 -1.09091 34.422 3.34109 47.58C6.49609 56.947 11.4031 66.323 15.2591 72.983C8.41509 88.15 8.1971 102.889 8.9581 111.631C9.8571 121.957 12.0171 132.295 15.3781 142.358C18.7381 152.419 24.8401 161.253 33.0231 167.904C40.6001 174.063 49.6281 178.072 59.2621 179.588C55.8281 186.667 52.5481 196.257 52.5481 207.067C52.5481 208.868 54.0081 210.328 55.8091 210.328C57.6101 210.328 59.0701 208.868 59.0701 207.067C59.0701 196.37 62.7231 186.916 66.1691 180.38C72.5521 180.98 78.9571 181.333 85.2681 181.42C85.2831 181.42 85.2991 181.42 85.3141 181.42C87.0941 181.42 88.5491 179.99 88.5741 178.204C88.5991 176.403 87.1601 174.923 85.3581 174.898C77.7681 174.793 70.0371 174.301 62.3791 173.435C53.0951 172.382 44.3671 168.719 37.1381 162.843C29.9171 156.974 24.5321 149.176 21.5651 140.292C18.3671 130.715 16.3121 120.881 15.4561 111.065C14.5111 100.214 15.1871 79.29 30.3321 61.068C31.4831 59.683 31.2941 57.627 29.9091 56.476C28.5231 55.325 26.4681 55.514 25.3171 56.899C22.8151 59.909 20.6781 62.985 18.8461 66.077C7.3991 45.343 3.7591 29.441 9.1521 23.018C14.3371 16.843 33.2281 20.786 59.2011 33.238C55.0501 34.883 51.0921 36.75 47.4231 38.8C45.8511 39.679 45.2891 41.665 46.1681 43.238C46.7651 44.307 47.8751 44.909 49.0171 44.909C49.5561 44.909 50.1021 44.775 50.6051 44.494C54.3841 42.382 58.5001 40.473 62.8341 38.821C69.7341 36.197 80.8331 34.238 95.8551 32.997C110.837 31.625 122.108 31.635 129.354 33.026C133.913 33.905 138.296 35.074 142.382 36.5C144.083 37.094 145.942 36.196 146.536 34.496C147.13 32.796 146.232 30.936 144.532 30.342C140.562 28.956 136.338 27.801 131.959 26.898C155.379 10.137 173.306 2.98899 179.488 8.18099C185.9 13.565 185.067 29.856 177.394 52.266C175.056 49.537 172.42 46.878 169.435 44.346C168.061 43.181 166.004 43.35 164.839 44.723C163.674 46.096 163.842 48.154 165.216 49.319C183.284 64.648 187.568 85.14 188.513 95.991C189.368 105.808 189.044 115.849 187.551 125.834C186.164 135.098 182.209 143.71 176.111 150.739C170.007 157.777 162.043 162.894 153.082 165.536C148.085 167.008 143.002 168.324 137.976 169.447C136.218 169.84 135.112 171.583 135.505 173.341C135.844 174.859 137.191 175.891 138.685 175.891C138.921 175.891 139.16 175.865 139.399 175.812C141.753 175.286 144.12 174.713 146.484 174.109C150.51 180.084 157.315 192.361 157.315 207.069C157.315 208.87 158.775 210.33 160.576 210.33C162.377 210.33 163.837 208.87 163.837 207.069C163.837 192.057 157.566 179.417 153.095 172.314C153.705 172.14 154.317 171.971 154.925 171.792C165.085 168.796 174.114 162.994 181.037 155.012C187.947 147.046 192.429 137.29 194 126.799C195.57 116.307 195.91 105.751 195.01 95.424Z" fill="#70838E"/>
<path d="M162.201 113.964C160.528 113.964 159.104 112.684 158.956 110.986C158.8 109.192 160.128 107.61 161.922 107.454L177.835 106.068C179.623 105.909 181.21 107.24 181.367 109.034C181.523 110.828 180.195 112.41 178.401 112.566L162.488 113.952C162.392 113.96 162.296 113.964 162.201 113.964Z" fill="#95A1B3"/>
<path d="M176.529 127.779C176.244 127.779 175.953 127.741 175.664 127.662L162.224 123.974C160.487 123.498 159.465 121.703 159.942 119.966C160.419 118.23 162.211 117.206 163.95 117.684L177.389 121.372C179.126 121.849 180.148 123.643 179.671 125.38C179.274 126.828 177.961 127.779 176.529 127.779Z" fill="#95A1B3"/>
<path d="M51.0509 123.646C49.3779 123.646 47.9539 122.366 47.8059 120.668C47.6499 118.874 48.9779 117.292 50.7719 117.136L66.6849 115.75C68.4729 115.588 70.0599 116.922 70.2169 118.716C70.3729 120.51 69.0459 122.091 67.2509 122.248L51.3379 123.634C51.2419 123.642 51.1459 123.646 51.0509 123.646Z" fill="#95A1B3"/>
<path d="M55.253 138.343C54.031 138.343 52.859 137.653 52.303 136.475C51.533 134.847 52.229 132.903 53.858 132.133L66.458 126.177C68.085 125.407 70.03 126.103 70.8 127.732C71.57 129.36 70.874 131.304 69.246 132.074L56.646 138.03C56.194 138.242 55.72 138.343 55.253 138.343Z" fill="#95A1B3"/>
<path d="M134.653 78.994C132.98 78.994 131.556 77.714 131.408 76.016C131.252 74.222 132.58 72.641 134.374 72.484L142.722 71.757C144.515 71.598 146.097 72.928 146.253 74.723C146.409 76.517 145.081 78.098 143.287 78.255L134.939 78.982C134.843 78.99 134.748 78.994 134.653 78.994Z" fill="white"/>
<path d="M79.7033 83.781C78.0303 83.781 76.6063 82.501 76.4583 80.803C76.3023 79.009 77.6293 77.428 79.4243 77.271L87.7723 76.544C89.5593 76.386 91.1472 77.716 91.3042 79.51C91.4602 81.304 90.1323 82.886 88.3383 83.042L79.9902 83.769C79.8942 83.777 79.7983 83.781 79.7033 83.781Z" fill="white"/>
<path d="M63.1914 107.751C62.4514 107.751 61.7074 107.5 61.0964 106.987C59.7174 105.829 59.5384 103.772 60.6964 102.393C67.1864 94.664 78.7553 93.656 86.4853 100.147C87.8643 101.305 88.0434 103.362 86.8854 104.742C85.7274 106.121 83.6703 106.301 82.2913 105.142C77.3163 100.964 69.8694 101.613 65.6914 106.588C65.0454 107.355 64.1214 107.751 63.1914 107.751Z" fill="#5F5C5D"/>
<path d="M142.219 100.867C141.479 100.867 140.735 100.616 140.124 100.103C138.745 98.945 138.566 96.888 139.724 95.509C146.215 87.78 157.783 86.773 165.512 93.263C166.891 94.421 167.07 96.478 165.913 97.857C164.755 99.236 162.699 99.416 161.318 98.257C156.344 94.079 148.896 94.728 144.719 99.703C144.073 100.471 143.149 100.867 142.219 100.867Z" fill="#5F5C5D"/>
<path d="M131.209 116.247C131.335 117.836 131.223 119.381 130.913 120.867C129.933 125.611 126.929 129.655 122.77 131.978C120.739 133.11 118.429 133.841 115.941 134.019C107.646 134.651 100.306 129.057 98.5215 121.172C98.3365 120.388 98.2145 119.573 98.1545 118.739C97.9925 116.585 98.2775 114.818 98.9115 113.356C100.177 110.536 102.794 108.888 106.179 107.896C108.445 107.234 111.073 106.876 113.882 106.67C120.857 106.14 126.893 106.685 129.661 111.052C130.525 112.396 131.048 114.106 131.209 116.247Z" fill="#70838E"/>
<path d="M122.755 129.734C122.808 130.491 122.809 131.239 122.77 131.978C120.739 133.11 118.428 133.841 115.94 134.019C107.645 134.651 100.305 129.057 98.5215 121.172C100.604 120.642 102.939 120.335 105.413 120.146C112.402 119.628 118.425 120.174 121.193 124.541C122.057 125.872 122.594 127.593 122.755 129.734Z" fill="#E27FA3"/>
<path d="M134.472 116.007C133.582 104.185 123.323 103.044 116.847 103.223L116.439 98.54L117.659 98.434C119.453 98.278 120.781 96.697 120.625 94.902C120.469 93.108 118.88 91.776 117.093 91.936L108.154 92.715C106.36 92.871 105.032 94.453 105.188 96.247C105.336 97.945 106.76 99.225 108.433 99.225C108.528 99.225 108.624 99.221 108.72 99.213L109.94 99.107L110.341 103.717C103.909 104.52 94.0173 107.208 94.9033 118.985C95.6863 129.39 104.402 137.337 114.672 137.337C115.169 137.337 115.671 137.318 116.174 137.281C127.085 136.458 135.292 126.916 134.472 116.007ZM115.687 130.775C108.364 131.326 101.959 125.817 101.408 118.494C101.047 113.689 103.011 110.744 114.117 109.908C125.225 109.073 127.607 111.691 127.968 116.496C128.518 123.819 123.009 130.224 115.687 130.775Z" fill="#70838E"/>
<path d="M42.5639 66.405L48.5179 60.451C50.1669 58.802 52.8409 58.802 54.4909 60.451L60.4449 66.405C65.3829 71.343 65.3829 79.348 60.4449 84.286C55.5069 89.224 47.5019 89.224 42.5639 84.286C37.6259 79.349 37.6259 71.343 42.5639 66.405Z" fill="#B5F6F8"/>
</svg>
